<mxfile host="app.diagrams.net" modified="2023-09-06T14:26:01.524Z" agent="Mozilla/5.0 (Windows NT 10.0; Win64; x64; rv:109.0) Gecko/20100101 Firefox/117.0" etag="VAon0wCvuQmRSd90fivs" version="21.7.2" type="device">
  <diagram name="Página-1" id="sg6FpjcqBXsTZGkmIxfH">
    <mxGraphModel dx="1434" dy="774" grid="1" gridSize="10" guides="1" tooltips="1" connect="1" arrows="1" fold="1" page="1" pageScale="1" pageWidth="827" pageHeight="1169" math="0" shadow="0">
      <root>
        <mxCell id="0" />
        <mxCell id="1" parent="0" />
        <mxCell id="RxgH645jCnCbGKISRhRZ-43" style="edgeStyle=orthogonalEdgeStyle;rounded=0;orthogonalLoop=1;jettySize=auto;html=1;exitX=1;exitY=0.25;exitDx=0;exitDy=0;entryX=0;entryY=0.5;entryDx=0;entryDy=0;endArrow=none;endFill=0;" parent="1" source="RxgH645jCnCbGKISRhRZ-1" target="RxgH645jCnCbGKISRhRZ-34" edge="1">
          <mxGeometry relative="1" as="geometry" />
        </mxCell>
        <mxCell id="RxgH645jCnCbGKISRhRZ-53" style="edgeStyle=orthogonalEdgeStyle;rounded=0;orthogonalLoop=1;jettySize=auto;html=1;exitX=0.75;exitY=1;exitDx=0;exitDy=0;entryX=1;entryY=0.5;entryDx=0;entryDy=0;endArrow=none;endFill=0;" parent="1" source="RxgH645jCnCbGKISRhRZ-1" target="RxgH645jCnCbGKISRhRZ-37" edge="1">
          <mxGeometry relative="1" as="geometry" />
        </mxCell>
        <mxCell id="RxgH645jCnCbGKISRhRZ-74" style="edgeStyle=orthogonalEdgeStyle;rounded=0;orthogonalLoop=1;jettySize=auto;html=1;exitX=1;exitY=0.75;exitDx=0;exitDy=0;endArrow=none;endFill=0;" parent="1" source="RxgH645jCnCbGKISRhRZ-1" target="RxgH645jCnCbGKISRhRZ-35" edge="1">
          <mxGeometry relative="1" as="geometry" />
        </mxCell>
        <mxCell id="RxgH645jCnCbGKISRhRZ-1" value="Utilizador" style="html=1;whiteSpace=wrap;" parent="1" vertex="1">
          <mxGeometry x="154" y="250" width="110" height="50" as="geometry" />
        </mxCell>
        <mxCell id="RxgH645jCnCbGKISRhRZ-49" style="edgeStyle=orthogonalEdgeStyle;rounded=0;orthogonalLoop=1;jettySize=auto;html=1;exitX=0.75;exitY=1;exitDx=0;exitDy=0;entryX=0;entryY=0.5;entryDx=0;entryDy=0;endArrow=none;endFill=0;" parent="1" source="RxgH645jCnCbGKISRhRZ-2" target="RxgH645jCnCbGKISRhRZ-40" edge="1">
          <mxGeometry relative="1" as="geometry" />
        </mxCell>
        <mxCell id="RxgH645jCnCbGKISRhRZ-51" style="edgeStyle=orthogonalEdgeStyle;rounded=0;orthogonalLoop=1;jettySize=auto;html=1;exitX=0.25;exitY=1;exitDx=0;exitDy=0;entryX=0.5;entryY=0;entryDx=0;entryDy=0;endArrow=none;endFill=0;" parent="1" source="RxgH645jCnCbGKISRhRZ-2" target="RxgH645jCnCbGKISRhRZ-42" edge="1">
          <mxGeometry relative="1" as="geometry" />
        </mxCell>
        <mxCell id="RxgH645jCnCbGKISRhRZ-2" value="Orçamento" style="html=1;whiteSpace=wrap;" parent="1" vertex="1">
          <mxGeometry x="373" y="520" width="110" height="50" as="geometry" />
        </mxCell>
        <mxCell id="RxgH645jCnCbGKISRhRZ-45" style="edgeStyle=orthogonalEdgeStyle;rounded=0;orthogonalLoop=1;jettySize=auto;html=1;exitX=1;exitY=0.5;exitDx=0;exitDy=0;entryX=0.5;entryY=0;entryDx=0;entryDy=0;endArrow=none;endFill=0;" parent="1" source="RxgH645jCnCbGKISRhRZ-3" target="RxgH645jCnCbGKISRhRZ-38" edge="1">
          <mxGeometry relative="1" as="geometry" />
        </mxCell>
        <mxCell id="w6HIhAjS9ZjwIiCBrl9g-2" style="edgeStyle=orthogonalEdgeStyle;rounded=0;orthogonalLoop=1;jettySize=auto;html=1;exitX=0.5;exitY=1;exitDx=0;exitDy=0;entryX=0.5;entryY=0;entryDx=0;entryDy=0;endArrow=none;endFill=0;" edge="1" parent="1" source="RxgH645jCnCbGKISRhRZ-3" target="w6HIhAjS9ZjwIiCBrl9g-1">
          <mxGeometry relative="1" as="geometry" />
        </mxCell>
        <mxCell id="RxgH645jCnCbGKISRhRZ-3" value="Serviço" style="html=1;whiteSpace=wrap;" parent="1" vertex="1">
          <mxGeometry x="450" y="125" width="110" height="50" as="geometry" />
        </mxCell>
        <mxCell id="RxgH645jCnCbGKISRhRZ-4" value="Cliente" style="html=1;whiteSpace=wrap;" parent="1" vertex="1">
          <mxGeometry x="213" y="755" width="110" height="50" as="geometry" />
        </mxCell>
        <mxCell id="RxgH645jCnCbGKISRhRZ-69" style="edgeStyle=orthogonalEdgeStyle;rounded=0;orthogonalLoop=1;jettySize=auto;html=1;exitX=0.5;exitY=1;exitDx=0;exitDy=0;entryX=0.75;entryY=0;entryDx=0;entryDy=0;endArrow=none;endFill=0;" parent="1" source="RxgH645jCnCbGKISRhRZ-6" target="RxgH645jCnCbGKISRhRZ-1" edge="1">
          <mxGeometry relative="1" as="geometry" />
        </mxCell>
        <mxCell id="RxgH645jCnCbGKISRhRZ-6" value="password" style="ellipse;whiteSpace=wrap;html=1;" parent="1" vertex="1">
          <mxGeometry x="200" y="160" width="80" height="40" as="geometry" />
        </mxCell>
        <mxCell id="RxgH645jCnCbGKISRhRZ-70" style="edgeStyle=orthogonalEdgeStyle;rounded=0;orthogonalLoop=1;jettySize=auto;html=1;exitX=1;exitY=1;exitDx=0;exitDy=0;entryX=0.5;entryY=0;entryDx=0;entryDy=0;endArrow=none;endFill=0;" parent="1" source="RxgH645jCnCbGKISRhRZ-7" target="RxgH645jCnCbGKISRhRZ-1" edge="1">
          <mxGeometry relative="1" as="geometry" />
        </mxCell>
        <mxCell id="RxgH645jCnCbGKISRhRZ-7" value="apelido" style="ellipse;whiteSpace=wrap;html=1;" parent="1" vertex="1">
          <mxGeometry x="100" y="150" width="80" height="40" as="geometry" />
        </mxCell>
        <mxCell id="RxgH645jCnCbGKISRhRZ-55" style="edgeStyle=orthogonalEdgeStyle;rounded=0;orthogonalLoop=1;jettySize=auto;html=1;exitX=0.5;exitY=1;exitDx=0;exitDy=0;entryX=0.605;entryY=-0.007;entryDx=0;entryDy=0;entryPerimeter=0;endArrow=none;endFill=0;" parent="1" source="RxgH645jCnCbGKISRhRZ-9" target="RxgH645jCnCbGKISRhRZ-4" edge="1">
          <mxGeometry relative="1" as="geometry" />
        </mxCell>
        <mxCell id="RxgH645jCnCbGKISRhRZ-9" value="morada" style="ellipse;whiteSpace=wrap;html=1;" parent="1" vertex="1">
          <mxGeometry x="240" y="660" width="80" height="40" as="geometry" />
        </mxCell>
        <mxCell id="RxgH645jCnCbGKISRhRZ-72" style="edgeStyle=orthogonalEdgeStyle;rounded=0;orthogonalLoop=1;jettySize=auto;html=1;exitX=1;exitY=0.5;exitDx=0;exitDy=0;entryX=0;entryY=0.75;entryDx=0;entryDy=0;endArrow=none;endFill=0;" parent="1" target="RxgH645jCnCbGKISRhRZ-1" edge="1">
          <mxGeometry relative="1" as="geometry">
            <mxPoint x="116" y="290" as="sourcePoint" />
            <mxPoint x="150" y="287.5" as="targetPoint" />
            <Array as="points">
              <mxPoint x="116" y="288" />
            </Array>
          </mxGeometry>
        </mxCell>
        <mxCell id="RxgH645jCnCbGKISRhRZ-10" value="contacto" style="ellipse;whiteSpace=wrap;html=1;" parent="1" vertex="1">
          <mxGeometry x="40" y="270" width="80" height="40" as="geometry" />
        </mxCell>
        <mxCell id="RxgH645jCnCbGKISRhRZ-73" style="edgeStyle=orthogonalEdgeStyle;rounded=0;orthogonalLoop=1;jettySize=auto;html=1;exitX=1;exitY=0.5;exitDx=0;exitDy=0;entryX=0.25;entryY=1;entryDx=0;entryDy=0;endArrow=none;endFill=0;" parent="1" source="RxgH645jCnCbGKISRhRZ-11" target="RxgH645jCnCbGKISRhRZ-1" edge="1">
          <mxGeometry relative="1" as="geometry" />
        </mxCell>
        <mxCell id="RxgH645jCnCbGKISRhRZ-11" value="email" style="ellipse;whiteSpace=wrap;html=1;" parent="1" vertex="1">
          <mxGeometry x="50" y="330" width="80" height="40" as="geometry" />
        </mxCell>
        <mxCell id="RxgH645jCnCbGKISRhRZ-71" style="edgeStyle=orthogonalEdgeStyle;rounded=0;orthogonalLoop=1;jettySize=auto;html=1;exitX=1;exitY=0.5;exitDx=0;exitDy=0;entryX=0;entryY=0.25;entryDx=0;entryDy=0;endArrow=none;endFill=0;" parent="1" source="RxgH645jCnCbGKISRhRZ-12" target="RxgH645jCnCbGKISRhRZ-1" edge="1">
          <mxGeometry relative="1" as="geometry">
            <Array as="points">
              <mxPoint x="140" y="220" />
              <mxPoint x="140" y="263" />
            </Array>
          </mxGeometry>
        </mxCell>
        <mxCell id="RxgH645jCnCbGKISRhRZ-12" value="nome" style="ellipse;whiteSpace=wrap;html=1;" parent="1" vertex="1">
          <mxGeometry x="50" y="200" width="80" height="40" as="geometry" />
        </mxCell>
        <mxCell id="RxgH645jCnCbGKISRhRZ-47" style="edgeStyle=orthogonalEdgeStyle;rounded=0;orthogonalLoop=1;jettySize=auto;html=1;exitX=0.5;exitY=1;exitDx=0;exitDy=0;entryX=0.5;entryY=0;entryDx=0;entryDy=0;endArrow=none;endFill=0;" parent="1" source="RxgH645jCnCbGKISRhRZ-13" target="RxgH645jCnCbGKISRhRZ-39" edge="1">
          <mxGeometry relative="1" as="geometry" />
        </mxCell>
        <mxCell id="RxgH645jCnCbGKISRhRZ-13" value="ItemOrçamento" style="html=1;whiteSpace=wrap;" parent="1" vertex="1">
          <mxGeometry x="560" y="320" width="140" height="50" as="geometry" />
        </mxCell>
        <mxCell id="RxgH645jCnCbGKISRhRZ-64" style="edgeStyle=orthogonalEdgeStyle;rounded=0;orthogonalLoop=1;jettySize=auto;html=1;exitX=0;exitY=0.5;exitDx=0;exitDy=0;entryX=0.75;entryY=0;entryDx=0;entryDy=0;endArrow=none;endFill=0;" parent="1" source="RxgH645jCnCbGKISRhRZ-14" target="RxgH645jCnCbGKISRhRZ-13" edge="1">
          <mxGeometry relative="1" as="geometry">
            <Array as="points">
              <mxPoint x="680" y="275" />
              <mxPoint x="680" y="275" />
              <mxPoint x="665" y="275" />
            </Array>
          </mxGeometry>
        </mxCell>
        <mxCell id="RxgH645jCnCbGKISRhRZ-14" value="quantidade" style="ellipse;whiteSpace=wrap;html=1;" parent="1" vertex="1">
          <mxGeometry x="700" y="255" width="80" height="40" as="geometry" />
        </mxCell>
        <mxCell id="RxgH645jCnCbGKISRhRZ-65" style="edgeStyle=orthogonalEdgeStyle;rounded=0;orthogonalLoop=1;jettySize=auto;html=1;exitX=0;exitY=0.5;exitDx=0;exitDy=0;entryX=1;entryY=0.5;entryDx=0;entryDy=0;endArrow=none;endFill=0;" parent="1" source="RxgH645jCnCbGKISRhRZ-15" target="RxgH645jCnCbGKISRhRZ-13" edge="1">
          <mxGeometry relative="1" as="geometry" />
        </mxCell>
        <mxCell id="RxgH645jCnCbGKISRhRZ-15" value="id" style="ellipse;whiteSpace=wrap;html=1;" parent="1" vertex="1">
          <mxGeometry x="740" y="340" width="80" height="40" as="geometry" />
        </mxCell>
        <mxCell id="RxgH645jCnCbGKISRhRZ-77" style="edgeStyle=orthogonalEdgeStyle;rounded=0;orthogonalLoop=1;jettySize=auto;html=1;exitX=0.5;exitY=1;exitDx=0;exitDy=0;entryX=0.75;entryY=0;entryDx=0;entryDy=0;endArrow=none;endFill=0;" parent="1" source="RxgH645jCnCbGKISRhRZ-16" target="RxgH645jCnCbGKISRhRZ-2" edge="1">
          <mxGeometry relative="1" as="geometry" />
        </mxCell>
        <mxCell id="RxgH645jCnCbGKISRhRZ-16" value="material" style="ellipse;whiteSpace=wrap;html=1;" parent="1" vertex="1">
          <mxGeometry x="450" y="430" width="80" height="40" as="geometry" />
        </mxCell>
        <mxCell id="RxgH645jCnCbGKISRhRZ-62" style="edgeStyle=orthogonalEdgeStyle;rounded=0;orthogonalLoop=1;jettySize=auto;html=1;exitX=0.5;exitY=0;exitDx=0;exitDy=0;entryX=0.75;entryY=1;entryDx=0;entryDy=0;endArrow=none;endFill=0;" parent="1" source="RxgH645jCnCbGKISRhRZ-17" target="RxgH645jCnCbGKISRhRZ-18" edge="1">
          <mxGeometry relative="1" as="geometry" />
        </mxCell>
        <mxCell id="RxgH645jCnCbGKISRhRZ-17" value="metodo" style="ellipse;whiteSpace=wrap;html=1;" parent="1" vertex="1">
          <mxGeometry x="725" y="690" width="80" height="40" as="geometry" />
        </mxCell>
        <mxCell id="RxgH645jCnCbGKISRhRZ-18" value="Pagamento" style="html=1;whiteSpace=wrap;" parent="1" vertex="1">
          <mxGeometry x="665" y="600" width="110" height="50" as="geometry" />
        </mxCell>
        <mxCell id="RxgH645jCnCbGKISRhRZ-63" style="edgeStyle=orthogonalEdgeStyle;rounded=0;orthogonalLoop=1;jettySize=auto;html=1;exitX=0.5;exitY=0;exitDx=0;exitDy=0;entryX=0.25;entryY=1;entryDx=0;entryDy=0;endArrow=none;endFill=0;" parent="1" source="RxgH645jCnCbGKISRhRZ-19" target="RxgH645jCnCbGKISRhRZ-18" edge="1">
          <mxGeometry relative="1" as="geometry" />
        </mxCell>
        <mxCell id="RxgH645jCnCbGKISRhRZ-19" value="id" style="ellipse;whiteSpace=wrap;html=1;" parent="1" vertex="1">
          <mxGeometry x="635" y="690" width="80" height="40" as="geometry" />
        </mxCell>
        <mxCell id="RxgH645jCnCbGKISRhRZ-76" style="edgeStyle=orthogonalEdgeStyle;rounded=0;orthogonalLoop=1;jettySize=auto;html=1;exitX=0.5;exitY=1;exitDx=0;exitDy=0;entryX=0.25;entryY=0;entryDx=0;entryDy=0;endArrow=none;endFill=0;" parent="1" source="RxgH645jCnCbGKISRhRZ-21" target="RxgH645jCnCbGKISRhRZ-2" edge="1">
          <mxGeometry relative="1" as="geometry" />
        </mxCell>
        <mxCell id="RxgH645jCnCbGKISRhRZ-21" value="data" style="ellipse;whiteSpace=wrap;html=1;" parent="1" vertex="1">
          <mxGeometry x="333" y="450" width="80" height="40" as="geometry" />
        </mxCell>
        <mxCell id="RxgH645jCnCbGKISRhRZ-33" style="edgeStyle=orthogonalEdgeStyle;rounded=0;orthogonalLoop=1;jettySize=auto;html=1;exitX=0.5;exitY=1;exitDx=0;exitDy=0;" parent="1" edge="1">
          <mxGeometry relative="1" as="geometry">
            <mxPoint x="213" y="900" as="targetPoint" />
            <mxPoint x="213" y="900" as="sourcePoint" />
          </mxGeometry>
        </mxCell>
        <mxCell id="RxgH645jCnCbGKISRhRZ-56" style="edgeStyle=orthogonalEdgeStyle;rounded=0;orthogonalLoop=1;jettySize=auto;html=1;exitX=0;exitY=0.5;exitDx=0;exitDy=0;entryX=1.003;entryY=0.343;entryDx=0;entryDy=0;entryPerimeter=0;endArrow=none;endFill=0;" parent="1" source="RxgH645jCnCbGKISRhRZ-25" target="RxgH645jCnCbGKISRhRZ-4" edge="1">
          <mxGeometry relative="1" as="geometry" />
        </mxCell>
        <mxCell id="RxgH645jCnCbGKISRhRZ-25" value="contacto" style="ellipse;whiteSpace=wrap;html=1;" parent="1" vertex="1">
          <mxGeometry x="373" y="750" width="80" height="40" as="geometry" />
        </mxCell>
        <mxCell id="RxgH645jCnCbGKISRhRZ-57" style="edgeStyle=orthogonalEdgeStyle;rounded=0;orthogonalLoop=1;jettySize=auto;html=1;exitX=0;exitY=0;exitDx=0;exitDy=0;entryX=1.007;entryY=0.705;entryDx=0;entryDy=0;entryPerimeter=0;endArrow=none;endFill=0;" parent="1" source="RxgH645jCnCbGKISRhRZ-26" target="RxgH645jCnCbGKISRhRZ-4" edge="1">
          <mxGeometry relative="1" as="geometry" />
        </mxCell>
        <mxCell id="RxgH645jCnCbGKISRhRZ-26" value="contribuinte" style="ellipse;whiteSpace=wrap;html=1;" parent="1" vertex="1">
          <mxGeometry x="355" y="810" width="80" height="40" as="geometry" />
        </mxCell>
        <mxCell id="RxgH645jCnCbGKISRhRZ-58" style="edgeStyle=orthogonalEdgeStyle;rounded=0;orthogonalLoop=1;jettySize=auto;html=1;exitX=0.5;exitY=0;exitDx=0;exitDy=0;entryX=0.888;entryY=1.016;entryDx=0;entryDy=0;entryPerimeter=0;endArrow=none;endFill=0;" parent="1" source="RxgH645jCnCbGKISRhRZ-27" target="RxgH645jCnCbGKISRhRZ-4" edge="1">
          <mxGeometry relative="1" as="geometry" />
        </mxCell>
        <mxCell id="RxgH645jCnCbGKISRhRZ-27" value="nome" style="ellipse;whiteSpace=wrap;html=1;" parent="1" vertex="1">
          <mxGeometry x="270" y="850" width="80" height="40" as="geometry" />
        </mxCell>
        <mxCell id="RxgH645jCnCbGKISRhRZ-60" style="edgeStyle=orthogonalEdgeStyle;rounded=0;orthogonalLoop=1;jettySize=auto;html=1;exitX=0.5;exitY=0;exitDx=0;exitDy=0;entryX=0.25;entryY=1;entryDx=0;entryDy=0;endArrow=none;endFill=0;" parent="1" source="RxgH645jCnCbGKISRhRZ-28" target="RxgH645jCnCbGKISRhRZ-4" edge="1">
          <mxGeometry relative="1" as="geometry" />
        </mxCell>
        <mxCell id="RxgH645jCnCbGKISRhRZ-28" value="cod postal" style="ellipse;whiteSpace=wrap;html=1;" parent="1" vertex="1">
          <mxGeometry x="180" y="850" width="80" height="40" as="geometry" />
        </mxCell>
        <mxCell id="RxgH645jCnCbGKISRhRZ-61" style="edgeStyle=orthogonalEdgeStyle;rounded=0;orthogonalLoop=1;jettySize=auto;html=1;exitX=0.5;exitY=1;exitDx=0;exitDy=0;entryX=0.25;entryY=0;entryDx=0;entryDy=0;endArrow=none;endFill=0;" parent="1" source="RxgH645jCnCbGKISRhRZ-29" target="RxgH645jCnCbGKISRhRZ-4" edge="1">
          <mxGeometry relative="1" as="geometry" />
        </mxCell>
        <mxCell id="RxgH645jCnCbGKISRhRZ-29" value="localidade" style="ellipse;whiteSpace=wrap;html=1;" parent="1" vertex="1">
          <mxGeometry x="133" y="650" width="80" height="40" as="geometry" />
        </mxCell>
        <mxCell id="RxgH645jCnCbGKISRhRZ-67" style="edgeStyle=orthogonalEdgeStyle;rounded=0;orthogonalLoop=1;jettySize=auto;html=1;exitX=0.5;exitY=1;exitDx=0;exitDy=0;entryX=0.5;entryY=0;entryDx=0;entryDy=0;endArrow=none;endFill=0;" parent="1" source="RxgH645jCnCbGKISRhRZ-30" target="RxgH645jCnCbGKISRhRZ-3" edge="1">
          <mxGeometry relative="1" as="geometry" />
        </mxCell>
        <mxCell id="RxgH645jCnCbGKISRhRZ-30" value="nome" style="ellipse;whiteSpace=wrap;html=1;" parent="1" vertex="1">
          <mxGeometry x="470" y="45" width="80" height="40" as="geometry" />
        </mxCell>
        <mxCell id="RxgH645jCnCbGKISRhRZ-66" style="edgeStyle=orthogonalEdgeStyle;rounded=0;orthogonalLoop=1;jettySize=auto;html=1;exitX=0;exitY=0.5;exitDx=0;exitDy=0;entryX=0.75;entryY=0;entryDx=0;entryDy=0;endArrow=none;endFill=0;" parent="1" source="RxgH645jCnCbGKISRhRZ-31" target="RxgH645jCnCbGKISRhRZ-3" edge="1">
          <mxGeometry relative="1" as="geometry" />
        </mxCell>
        <mxCell id="RxgH645jCnCbGKISRhRZ-31" value="descrição" style="ellipse;whiteSpace=wrap;html=1;" parent="1" vertex="1">
          <mxGeometry x="585" y="85" width="80" height="40" as="geometry" />
        </mxCell>
        <mxCell id="RxgH645jCnCbGKISRhRZ-68" style="edgeStyle=orthogonalEdgeStyle;rounded=0;orthogonalLoop=1;jettySize=auto;html=1;exitX=1;exitY=0.5;exitDx=0;exitDy=0;entryX=0.25;entryY=0;entryDx=0;entryDy=0;endArrow=none;endFill=0;" parent="1" source="RxgH645jCnCbGKISRhRZ-32" target="RxgH645jCnCbGKISRhRZ-3" edge="1">
          <mxGeometry relative="1" as="geometry" />
        </mxCell>
        <mxCell id="RxgH645jCnCbGKISRhRZ-32" value="valor" style="ellipse;whiteSpace=wrap;html=1;" parent="1" vertex="1">
          <mxGeometry x="355" y="80" width="80" height="40" as="geometry" />
        </mxCell>
        <mxCell id="RxgH645jCnCbGKISRhRZ-44" style="edgeStyle=orthogonalEdgeStyle;rounded=0;orthogonalLoop=1;jettySize=auto;html=1;exitX=1;exitY=0.5;exitDx=0;exitDy=0;entryX=0;entryY=0.5;entryDx=0;entryDy=0;endArrow=none;endFill=0;" parent="1" source="RxgH645jCnCbGKISRhRZ-34" target="RxgH645jCnCbGKISRhRZ-3" edge="1">
          <mxGeometry relative="1" as="geometry" />
        </mxCell>
        <mxCell id="RxgH645jCnCbGKISRhRZ-34" value="cria" style="rhombus;whiteSpace=wrap;html=1;" parent="1" vertex="1">
          <mxGeometry x="333" y="210" width="60" height="40" as="geometry" />
        </mxCell>
        <mxCell id="RxgH645jCnCbGKISRhRZ-75" style="edgeStyle=orthogonalEdgeStyle;rounded=0;orthogonalLoop=1;jettySize=auto;html=1;exitX=0.5;exitY=1;exitDx=0;exitDy=0;entryX=0;entryY=0.5;entryDx=0;entryDy=0;endArrow=none;endFill=0;" parent="1" source="RxgH645jCnCbGKISRhRZ-35" target="RxgH645jCnCbGKISRhRZ-2" edge="1">
          <mxGeometry relative="1" as="geometry" />
        </mxCell>
        <mxCell id="RxgH645jCnCbGKISRhRZ-35" value="escreve" style="rhombus;whiteSpace=wrap;html=1;" parent="1" vertex="1">
          <mxGeometry x="268" y="360" width="87" height="50" as="geometry" />
        </mxCell>
        <mxCell id="RxgH645jCnCbGKISRhRZ-54" style="edgeStyle=orthogonalEdgeStyle;rounded=0;orthogonalLoop=1;jettySize=auto;html=1;exitX=0;exitY=0.5;exitDx=0;exitDy=0;entryX=0;entryY=0.5;entryDx=0;entryDy=0;endArrow=none;endFill=0;" parent="1" source="RxgH645jCnCbGKISRhRZ-37" target="RxgH645jCnCbGKISRhRZ-4" edge="1">
          <mxGeometry relative="1" as="geometry">
            <Array as="points">
              <mxPoint x="70" y="560" />
              <mxPoint x="70" y="780" />
            </Array>
            <mxPoint x="70" y="680" as="targetPoint" />
          </mxGeometry>
        </mxCell>
        <mxCell id="RxgH645jCnCbGKISRhRZ-37" value="associa" style="rhombus;whiteSpace=wrap;html=1;" parent="1" vertex="1">
          <mxGeometry x="129.5" y="535" width="87" height="50" as="geometry" />
        </mxCell>
        <mxCell id="RxgH645jCnCbGKISRhRZ-46" style="edgeStyle=orthogonalEdgeStyle;rounded=0;orthogonalLoop=1;jettySize=auto;html=1;exitX=0.5;exitY=1;exitDx=0;exitDy=0;entryX=0.5;entryY=0;entryDx=0;entryDy=0;endArrow=none;endFill=0;" parent="1" source="RxgH645jCnCbGKISRhRZ-38" target="RxgH645jCnCbGKISRhRZ-13" edge="1">
          <mxGeometry relative="1" as="geometry" />
        </mxCell>
        <mxCell id="RxgH645jCnCbGKISRhRZ-38" value="tem" style="rhombus;whiteSpace=wrap;html=1;" parent="1" vertex="1">
          <mxGeometry x="550" y="220" width="70" height="50" as="geometry" />
        </mxCell>
        <mxCell id="RxgH645jCnCbGKISRhRZ-48" style="edgeStyle=orthogonalEdgeStyle;rounded=0;orthogonalLoop=1;jettySize=auto;html=1;exitX=0.5;exitY=1;exitDx=0;exitDy=0;entryX=1;entryY=0.25;entryDx=0;entryDy=0;endArrow=none;endFill=0;" parent="1" source="RxgH645jCnCbGKISRhRZ-39" target="RxgH645jCnCbGKISRhRZ-2" edge="1">
          <mxGeometry relative="1" as="geometry" />
        </mxCell>
        <mxCell id="RxgH645jCnCbGKISRhRZ-39" value="tem" style="rhombus;whiteSpace=wrap;html=1;" parent="1" vertex="1">
          <mxGeometry x="560" y="440" width="70" height="50" as="geometry" />
        </mxCell>
        <mxCell id="RxgH645jCnCbGKISRhRZ-50" style="edgeStyle=orthogonalEdgeStyle;rounded=0;orthogonalLoop=1;jettySize=auto;html=1;exitX=1;exitY=0.5;exitDx=0;exitDy=0;entryX=0;entryY=0.5;entryDx=0;entryDy=0;endArrow=none;endFill=0;" parent="1" source="RxgH645jCnCbGKISRhRZ-40" target="RxgH645jCnCbGKISRhRZ-18" edge="1">
          <mxGeometry relative="1" as="geometry" />
        </mxCell>
        <mxCell id="RxgH645jCnCbGKISRhRZ-40" value="indica" style="rhombus;whiteSpace=wrap;html=1;" parent="1" vertex="1">
          <mxGeometry x="520" y="600" width="70" height="50" as="geometry" />
        </mxCell>
        <mxCell id="RxgH645jCnCbGKISRhRZ-52" style="edgeStyle=orthogonalEdgeStyle;rounded=0;orthogonalLoop=1;jettySize=auto;html=1;exitX=0.5;exitY=1;exitDx=0;exitDy=0;entryX=0.969;entryY=0.005;entryDx=0;entryDy=0;entryPerimeter=0;endArrow=none;endFill=0;" parent="1" source="RxgH645jCnCbGKISRhRZ-42" target="RxgH645jCnCbGKISRhRZ-4" edge="1">
          <mxGeometry relative="1" as="geometry">
            <mxPoint x="320" y="750" as="targetPoint" />
            <Array as="points">
              <mxPoint x="395" y="710" />
              <mxPoint x="320" y="710" />
            </Array>
          </mxGeometry>
        </mxCell>
        <mxCell id="RxgH645jCnCbGKISRhRZ-42" value="para" style="rhombus;whiteSpace=wrap;html=1;" parent="1" vertex="1">
          <mxGeometry x="360" y="640" width="70" height="50" as="geometry" />
        </mxCell>
        <mxCell id="ET9NhkUcz603RWq4ZlQj-2" style="edgeStyle=orthogonalEdgeStyle;rounded=0;orthogonalLoop=1;jettySize=auto;html=1;exitX=1;exitY=0.5;exitDx=0;exitDy=0;entryX=0.391;entryY=1.04;entryDx=0;entryDy=0;entryPerimeter=0;endArrow=none;endFill=0;" parent="1" source="ET9NhkUcz603RWq4ZlQj-1" target="RxgH645jCnCbGKISRhRZ-1" edge="1">
          <mxGeometry relative="1" as="geometry" />
        </mxCell>
        <mxCell id="ET9NhkUcz603RWq4ZlQj-1" value="nomeUtilizador" style="ellipse;whiteSpace=wrap;html=1;" parent="1" vertex="1">
          <mxGeometry x="50" y="400" width="100" height="40" as="geometry" />
        </mxCell>
        <mxCell id="ET9NhkUcz603RWq4ZlQj-3" value="1,..*" style="text;html=1;align=center;verticalAlign=middle;resizable=0;points=[];autosize=1;strokeColor=none;fillColor=none;" parent="1" vertex="1">
          <mxGeometry x="414" y="150" width="40" height="30" as="geometry" />
        </mxCell>
        <mxCell id="ET9NhkUcz603RWq4ZlQj-4" value="1" style="text;html=1;align=center;verticalAlign=middle;resizable=0;points=[];autosize=1;strokeColor=none;fillColor=none;" parent="1" vertex="1">
          <mxGeometry x="264" y="230" width="30" height="30" as="geometry" />
        </mxCell>
        <mxCell id="ET9NhkUcz603RWq4ZlQj-5" value="0,..*" style="text;html=1;align=center;verticalAlign=middle;resizable=0;points=[];autosize=1;strokeColor=none;fillColor=none;" parent="1" vertex="1">
          <mxGeometry x="595" y="295" width="40" height="30" as="geometry" />
        </mxCell>
        <mxCell id="ET9NhkUcz603RWq4ZlQj-6" value="1" style="text;html=1;align=center;verticalAlign=middle;resizable=0;points=[];autosize=1;strokeColor=none;fillColor=none;" parent="1" vertex="1">
          <mxGeometry x="555" y="120" width="30" height="30" as="geometry" />
        </mxCell>
        <mxCell id="ET9NhkUcz603RWq4ZlQj-7" value="1" style="text;html=1;align=center;verticalAlign=middle;resizable=0;points=[];autosize=1;strokeColor=none;fillColor=none;" parent="1" vertex="1">
          <mxGeometry x="483" y="535" width="30" height="30" as="geometry" />
        </mxCell>
        <mxCell id="ET9NhkUcz603RWq4ZlQj-9" value="1,..*" style="text;html=1;align=center;verticalAlign=middle;resizable=0;points=[];autosize=1;strokeColor=none;fillColor=none;" parent="1" vertex="1">
          <mxGeometry x="635" y="370" width="40" height="30" as="geometry" />
        </mxCell>
        <mxCell id="ET9NhkUcz603RWq4ZlQj-10" value="1" style="text;html=1;align=center;verticalAlign=middle;resizable=0;points=[];autosize=1;strokeColor=none;fillColor=none;" parent="1" vertex="1">
          <mxGeometry x="635" y="600" width="30" height="30" as="geometry" />
        </mxCell>
        <mxCell id="ET9NhkUcz603RWq4ZlQj-12" value="0,..*" style="text;html=1;align=center;verticalAlign=middle;resizable=0;points=[];autosize=1;strokeColor=none;fillColor=none;" parent="1" vertex="1">
          <mxGeometry x="454" y="570" width="40" height="30" as="geometry" />
        </mxCell>
        <mxCell id="ET9NhkUcz603RWq4ZlQj-13" value="1" style="text;html=1;align=center;verticalAlign=middle;resizable=0;points=[];autosize=1;strokeColor=none;fillColor=none;" parent="1" vertex="1">
          <mxGeometry x="320" y="710" width="30" height="30" as="geometry" />
        </mxCell>
        <mxCell id="ET9NhkUcz603RWq4ZlQj-14" value="0,..*" style="text;html=1;align=center;verticalAlign=middle;resizable=0;points=[];autosize=1;strokeColor=none;fillColor=none;" parent="1" vertex="1">
          <mxGeometry x="363" y="570" width="40" height="30" as="geometry" />
        </mxCell>
        <mxCell id="ET9NhkUcz603RWq4ZlQj-15" value="0,..*" style="text;html=1;align=center;verticalAlign=middle;resizable=0;points=[];autosize=1;strokeColor=none;fillColor=none;" parent="1" vertex="1">
          <mxGeometry x="333" y="520" width="40" height="30" as="geometry" />
        </mxCell>
        <mxCell id="ET9NhkUcz603RWq4ZlQj-16" value="1" style="text;html=1;align=center;verticalAlign=middle;resizable=0;points=[];autosize=1;strokeColor=none;fillColor=none;" parent="1" vertex="1">
          <mxGeometry x="280" y="290" width="30" height="30" as="geometry" />
        </mxCell>
        <mxCell id="ET9NhkUcz603RWq4ZlQj-17" value="0,..*" style="text;html=1;align=center;verticalAlign=middle;resizable=0;points=[];autosize=1;strokeColor=none;fillColor=none;" parent="1" vertex="1">
          <mxGeometry x="173" y="755" width="40" height="30" as="geometry" />
        </mxCell>
        <mxCell id="ET9NhkUcz603RWq4ZlQj-18" value="1" style="text;html=1;align=center;verticalAlign=middle;resizable=0;points=[];autosize=1;strokeColor=none;fillColor=none;" parent="1" vertex="1">
          <mxGeometry x="235" y="308" width="30" height="30" as="geometry" />
        </mxCell>
        <mxCell id="OXw7npnlb80zxPRPRlnI-3" style="edgeStyle=orthogonalEdgeStyle;rounded=0;orthogonalLoop=1;jettySize=auto;html=1;exitX=0.5;exitY=1;exitDx=0;exitDy=0;entryX=0.5;entryY=0;entryDx=0;entryDy=0;endArrow=none;endFill=0;" parent="1" source="OXw7npnlb80zxPRPRlnI-2" target="RxgH645jCnCbGKISRhRZ-2" edge="1">
          <mxGeometry relative="1" as="geometry" />
        </mxCell>
        <mxCell id="OXw7npnlb80zxPRPRlnI-2" value="estado" style="ellipse;whiteSpace=wrap;html=1;" parent="1" vertex="1">
          <mxGeometry x="390" y="390" width="80" height="40" as="geometry" />
        </mxCell>
        <mxCell id="w6HIhAjS9ZjwIiCBrl9g-1" value="Unidade Medida" style="ellipse;whiteSpace=wrap;html=1;" vertex="1" parent="1">
          <mxGeometry x="458" y="200" width="80" height="40" as="geometry" />
        </mxCell>
      </root>
    </mxGraphModel>
  </diagram>
</mxfile>
